<svg 
 xmlns="http://www.w3.org/2000/svg"
 xmlns:xlink="http://www.w3.org/1999/xlink"
 width="708px" height="708px">
<path fill-rule="evenodd"  fill="rgb(107, 158, 99)"
 d="M-0.000,-0.000 L354.000,-0.000 L354.000,354.000 L-0.000,354.000 L-0.000,-0.000 Z"/>
<path fill-rule="evenodd"  fill="rgb(236, 215, 89)"
 d="M-0.000,354.000 L354.000,354.000 L354.000,708.000 L-0.000,708.000 L-0.000,354.000 Z"/>
<path fill-rule="evenodd"  fill="rgb(184, 75, 64)"
 d="M354.000,-0.000 L708.000,-0.000 L708.000,354.000 L354.000,354.000 L354.000,-0.000 Z"/>
<path fill-rule="evenodd"  fill="rgb(89, 127, 192)"
 d="M354.000,354.000 L708.000,354.000 L708.000,708.000 L354.000,708.000 L354.000,354.000 Z"/>
<path fill-rule="evenodd"  fill="rgb(255, 255, 255)"
 d="M651.886,96.414 C644.386,103.913 631.637,115.662 622.388,122.162 L619.888,120.662 C621.388,112.913 623.638,100.663 625.388,91.414 L610.888,91.414 L610.888,91.914 L610.888,134.911 C610.888,137.911 611.388,138.661 615.888,138.661 L626.638,138.661 L635.887,138.661 C637.887,138.411 639.387,138.161 640.637,136.661 C642.387,134.411 645.386,127.412 648.386,119.412 L650.886,119.412 L651.886,136.911 C657.886,139.411 659.636,142.661 659.636,147.411 C659.636,157.160 651.386,161.660 623.888,161.660 L608.389,161.660 C589.640,161.660 586.640,156.660 586.640,141.161 L586.640,91.414 L574.391,91.414 C571.641,125.912 562.641,152.410 503.145,169.909 L500.645,166.409 C542.642,145.911 546.642,121.162 547.392,91.414 L536.893,91.414 C536.893,104.413 531.643,113.663 524.644,117.662 C517.394,121.662 507.145,119.662 504.395,111.413 C502.145,103.413 507.145,97.414 513.644,94.164 C521.144,90.664 529.393,80.665 528.893,70.415 L532.643,70.415 C534.393,75.415 535.643,79.915 536.143,84.164 L623.638,84.164 L637.137,70.165 L661.635,93.414 C659.636,95.664 656.886,96.164 651.886,96.414 ZM482.646,126.662 L494.895,106.413 C494.895,106.413 509.144,120.662 516.394,129.662 C515.644,132.411 513.144,133.661 509.894,133.661 L481.646,133.661 L481.646,180.659 C493.145,178.409 505.145,175.909 517.144,173.159 L517.894,175.659 C508.894,181.409 496.895,188.908 481.646,197.658 L481.646,267.903 C481.646,287.652 477.896,298.652 447.898,301.402 C447.398,292.652 446.398,285.902 443.398,281.403 C440.399,277.153 435.899,274.153 425.899,272.403 L425.899,268.903 C425.899,268.903 445.148,270.153 449.148,270.153 C452.898,270.153 453.898,269.153 453.898,266.154 L453.898,213.157 C449.398,215.657 444.648,218.156 439.649,220.656 C438.399,223.656 435.899,226.406 432.899,227.156 L421.650,192.158 C428.399,191.158 439.899,188.908 453.898,186.408 L453.898,133.661 L425.649,133.661 L423.650,126.662 L453.898,126.662 L453.898,66.415 L490.896,70.165 C490.396,73.665 487.896,76.165 481.646,77.165 L481.646,126.662 L482.646,126.662 ZM290.136,292.902 L93.648,292.902 L91.648,285.652 L130.146,285.652 L130.146,222.406 L165.643,225.406 C165.393,228.906 163.394,230.906 157.644,231.906 L157.644,285.652 L184.642,285.652 L184.642,206.907 L220.890,210.157 C220.390,213.407 218.640,215.657 212.641,216.657 L212.641,239.905 L241.139,239.905 L256.138,220.906 C256.138,220.906 272.887,233.906 283.386,242.905 C282.637,245.655 279.887,246.905 276.387,246.905 L212.641,246.905 L212.641,285.652 L251.638,285.652 L267.637,265.404 C267.637,265.404 285.886,279.153 297.136,288.902 C296.386,291.652 293.636,292.902 290.136,292.902 ZM296.636,177.409 C287.136,179.909 280.637,187.908 277.637,201.157 C263.388,187.658 253.888,167.909 248.139,141.661 L248.139,201.407 C248.139,203.157 237.389,207.907 228.140,207.907 L223.640,207.907 L223.640,167.409 C213.891,180.159 201.141,190.908 185.892,199.908 L183.392,196.408 C198.641,180.659 208.391,159.910 213.891,137.661 L195.142,137.661 L194.892,136.911 C193.892,137.411 192.642,137.661 191.392,137.661 L165.393,137.661 L165.393,142.911 C215.140,151.910 194.392,188.158 175.393,173.409 C174.643,165.410 170.143,156.410 165.393,149.410 L165.393,200.907 C165.393,202.907 154.894,207.407 146.145,207.407 L141.645,207.407 L141.645,172.909 C132.645,184.658 121.646,195.158 108.897,204.157 L106.147,200.657 C120.146,183.408 129.396,160.660 135.145,137.661 L110.897,137.661 L108.897,130.412 L141.645,130.412 L141.645,98.663 L173.893,101.913 C173.393,105.163 171.393,107.413 165.393,108.413 L165.393,130.412 L166.143,130.412 L177.143,115.912 C177.143,115.912 186.892,123.412 194.392,130.412 L223.640,130.412 L223.640,99.163 L256.638,102.413 C256.138,105.663 254.138,107.913 248.139,108.913 L248.139,130.412 L256.388,130.412 L269.137,113.163 C269.137,113.163 283.636,124.912 292.386,133.661 C291.636,136.411 289.136,137.661 285.636,137.661 L252.888,137.661 C262.638,154.910 279.637,168.159 296.886,174.659 L296.636,177.409 ZM285.386,93.664 L107.897,93.664 L107.897,147.411 C107.897,192.908 106.147,257.654 64.149,301.152 L61.150,299.402 C79.648,253.404 80.398,195.908 80.398,147.411 L80.398,72.915 L112.147,86.414 L246.389,86.414 L262.888,65.665 C262.888,65.665 281.137,79.915 292.386,89.664 C291.636,92.414 289.136,93.664 285.386,93.664 ZM502.645,207.157 L500.645,200.157 L561.391,200.157 L561.391,163.660 L597.139,166.909 C596.639,169.909 595.139,171.909 589.640,172.659 L589.640,200.157 L617.388,200.157 L632.387,180.159 C632.387,180.159 649.136,193.658 659.386,203.157 C658.636,205.907 656.136,207.157 652.636,207.157 L593.889,207.157 C608.639,231.156 635.637,248.905 661.635,257.404 L661.136,260.154 C650.386,262.904 642.387,272.153 638.887,286.902 C614.888,270.403 599.139,244.905 589.640,210.157 L589.640,293.152 C589.640,295.402 576.890,300.902 566.641,300.902 L561.391,300.902 L561.391,241.655 C543.392,261.154 519.144,276.653 489.646,288.152 L487.396,284.653 C517.394,265.904 538.893,237.405 550.892,207.157 L502.645,207.157 Z"/>
<path fill-rule="evenodd"  fill="rgb(255, 255, 255)"
 d="M653.136,465.162 L565.391,465.162 C553.142,481.411 538.643,494.161 522.894,503.660 L533.393,512.660 C531.643,514.659 528.643,516.409 523.144,516.909 L522.644,533.658 C552.392,516.909 583.640,488.911 598.389,466.912 L630.137,486.161 C628.887,488.161 626.138,488.911 621.638,487.661 C613.888,494.911 603.639,502.410 591.890,509.410 C594.639,523.909 598.639,537.658 603.889,550.157 C615.638,535.408 628.637,516.159 634.387,505.160 L664.385,526.909 C662.635,528.909 658.886,530.658 653.886,528.659 C643.887,535.658 624.638,547.407 606.389,555.907 C619.138,583.905 637.887,605.404 661.635,616.153 L661.136,618.653 C650.636,621.903 641.637,631.902 637.637,647.652 C605.639,619.903 593.889,578.156 588.140,511.660 C584.140,513.909 579.890,516.159 575.641,518.409 L575.641,641.152 C575.641,642.902 567.141,648.152 553.142,648.152 L548.392,648.152 L548.392,530.408 C539.893,533.658 531.143,536.408 522.644,538.658 C520.394,600.154 515.894,624.653 505.145,634.902 C497.395,642.152 487.396,645.402 475.146,645.402 C475.146,636.902 474.397,630.653 471.397,626.653 C468.147,622.653 461.647,619.903 453.148,617.903 L453.398,614.404 C460.647,615.153 472.647,615.653 477.396,615.653 C481.146,615.653 483.396,615.153 485.146,613.154 C492.145,606.654 495.145,576.406 496.895,512.660 L479.146,512.660 C475.896,563.907 465.647,611.404 423.900,647.652 L420.650,644.152 C452.898,593.155 451.648,532.158 451.898,471.912 L425.899,471.912 L423.900,464.912 L462.897,464.912 L462.897,415.165 L500.395,418.415 C500.145,421.415 498.145,423.665 492.395,424.665 L492.395,464.912 L499.395,464.912 L514.644,443.164 C514.644,443.164 529.143,455.663 539.393,465.412 C546.142,449.913 551.892,432.414 555.642,414.665 L594.639,427.665 C593.639,430.664 590.390,432.914 584.640,432.664 C580.390,441.914 575.641,450.163 570.391,457.913 L617.388,457.913 L632.637,437.164 C632.637,437.164 649.886,451.413 660.136,461.163 C659.386,463.912 656.636,465.162 653.136,465.162 ZM535.143,471.912 L480.396,471.912 C480.146,483.161 479.896,494.661 479.396,505.660 L494.395,505.660 L508.395,491.161 L519.644,500.910 C525.644,492.661 531.393,482.911 536.393,471.912 L535.143,471.912 ZM278.137,642.902 L199.641,642.902 C151.894,642.902 132.645,635.652 115.896,600.154 C105.897,614.154 90.648,631.902 81.148,642.152 C81.398,645.652 79.898,647.402 77.399,648.402 L61.650,616.653 C69.399,613.904 80.148,609.404 91.398,604.404 L91.398,530.158 L62.899,530.158 L61.400,523.159 L87.648,523.159 L101.647,504.160 L131.645,528.659 C129.646,530.908 125.896,532.658 118.646,533.658 L118.646,596.155 C136.145,614.154 153.644,616.653 199.391,616.653 C227.640,616.653 265.887,616.653 296.886,615.653 L296.886,618.653 C285.886,621.403 279.387,629.903 278.137,642.902 ZM266.637,601.654 C263.888,575.906 246.889,531.408 223.390,507.910 C234.139,479.911 248.639,435.664 252.388,417.415 L291.886,428.914 C290.886,432.164 287.886,433.914 282.387,433.414 C273.637,446.163 247.889,484.411 230.640,506.660 C321.634,558.157 293.386,622.153 266.637,601.654 ZM233.889,432.914 C225.640,445.663 201.641,484.161 185.142,506.660 C271.137,559.907 242.389,622.403 216.640,601.654 C214.891,576.406 200.141,532.158 178.143,507.660 C188.142,479.661 201.141,435.414 204.391,417.415 L243.389,428.165 C242.389,431.414 239.389,433.414 233.889,432.914 ZM187.392,432.414 C179.643,445.413 157.144,484.161 141.895,506.910 C222.890,560.907 193.142,622.903 167.893,601.654 C167.143,576.906 154.644,532.658 134.895,507.660 C144.145,479.411 154.644,435.164 157.144,417.415 L197.142,427.665 C196.142,431.164 193.142,432.914 187.392,432.414 ZM94.148,469.912 C91.648,453.163 81.148,434.914 70.399,422.915 L72.399,421.415 C146.395,434.914 121.646,489.911 94.148,469.912 Z"/>
</svg>