<?xml version="1.0" encoding="utf-8"?>
<!-- Generator: Adobe Illustrator 17.0.0, SVG Export Plug-In . SVG Version: 6.00 Build 0)  -->
<!DOCTYPE svg PUBLIC "-//W3C//DTD SVG 1.1//EN" "http://www.w3.org/Graphics/SVG/1.1/DTD/svg11.dtd">
<svg version="1.1" id="レイヤー_1" xmlns="http://www.w3.org/2000/svg" xmlns:xlink="http://www.w3.org/1999/xlink" x="0px"
	 y="0px" width="170px" height="170px" viewBox="0 0 170 170" enable-background="new 0 0 170 170" xml:space="preserve">
<g>
	<rect fill="#6B9E63" width="85" height="85"/>
	<rect x="85" fill="#B84B40" width="85" height="85"/>
	<rect y="85" fill="#ECD759" width="85" height="85"/>
	<rect x="85" y="85" fill="#597FC0" width="85" height="85"/>
</g>
<g enable-background="new    ">
	<path fill="#FFFFFF" d="M35.929,47.453c-5.1,3.84-6.66,4.92-16.379,10.62c-0.3,2.34-0.54,2.939-1.14,2.939
		c-0.24,0-0.48-0.24-0.72-0.66c-0.12-0.3-1.02-3.06-2.58-8.279c2.58-0.3,3.12-0.36,6.6-1.26V30.354h-3.06
		c-1.14,0-2.4,0.12-3.42,0.359l-0.42-2.159c1.32,0.359,2.46,0.54,3.84,0.54h3.06v-8.28c0-3.479-0.06-5.159-0.42-8.64
		c6.96,0.66,7.68,0.78,8.46,1.08c0.48,0.12,0.72,0.42,0.72,0.72c0,0.48-0.66,0.9-2.52,1.44v13.68h0.72
		c1.26-1.801,1.62-2.4,2.82-4.141c1.92,1.92,2.52,2.521,4.26,4.5c0.18,0.24,0.3,0.42,0.3,0.6c0,0.181-0.24,0.301-0.6,0.301h-7.5
		v18.839c3.48-1.02,4.62-1.38,7.62-2.52L35.929,47.453z M34.849,35.274c-1.2,0.42-2.28,0.96-3.24,1.619l-1.14-1.979
		c1.74-0.24,2.82-0.48,4.08-0.9l1.86-0.659v-7.68c0-3.48-0.06-5.101-0.36-8.521c8.1,0.721,8.1,0.721,8.64,1.021
		c0.18,0.06,0.36,0.359,0.36,0.6c0,0.48-0.54,0.84-2.28,1.44v10.979l5.46-1.92c-0.06-13.859-0.06-13.859-0.36-18.119
		c1.86,0.18,3.36,0.359,4.26,0.42c4.14,0.479,4.86,0.66,4.86,1.319c0,0.54-0.54,0.9-2.34,1.5v12.66l5.939-2.04
		c1.08-1.92,1.44-2.46,2.64-4.26c2.52,1.319,3.3,1.739,5.52,3c0.6,0.359,0.9,0.659,0.9,1.02c0,0.54-0.479,0.96-2.1,1.86
		c-0.42,9.779-0.54,11.759-0.84,14.879c-0.54,5.76-1.2,7.68-3.12,8.7c-1.2,0.6-2.94,1.02-4.56,1.02c-0.6,0-0.72-0.18-0.78-0.9
		c-0.06-1.859-0.54-3.18-1.32-4.079c-0.48-0.48-0.9-0.721-2.22-1.261c0,2.88,0,3.721,0.12,7.44c0,1.439-0.54,1.62-4.439,1.62
		c-1.98,0-2.28-0.181-2.28-1.32c0.18-11.76,0.18-12,0.18-16.26c0-0.3,0-2.52-0.06-5.819l-5.52,1.92v24.299
		c0,0.9,0.12,1.26,0.48,1.38c0.48,0.24,2.82,0.42,5.82,0.42c11.399,0,13.679-0.12,14.639-0.66c1.08-0.659,2.22-3.42,5.34-12.719
		l0.72,0.119l-0.72,9.96c-0.06,0.48-0.06,0.78-0.06,0.96c0,0.6,0.18,0.84,1.02,1.26c1.26,0.66,1.74,1.44,1.74,2.521
		c0,1.859-1.08,2.939-3.42,3.54c-1.62,0.42-7.08,0.72-13.499,0.72c-1.8,0-10.86-0.12-11.88-0.181c-5.28-0.18-6.479-1.02-6.54-4.919
		c0.06-9.54,0.06-17.7,0.06-24.539L34.849,35.274z M54.648,28.434c0,5.819,0,11.039,0.06,15.779c1.8,0.18,3.06,0.24,3.84,0.24
		c1.26,0,1.56-0.301,1.8-1.98c0.54-3.54,0.72-7.439,0.84-16.319L54.648,28.434z"/>
</g>
<g enable-background="new    ">
	<path fill="#ECD759" d="M109.55,64.312c-0.061,1.261-0.9,1.561-4.44,1.561c-2.1,0-2.58-0.3-2.58-1.44c0-0.06,0-0.12,0-0.24
		c0.301-10.979,0.42-20.459,0.42-34.678c0-8.76-0.119-14.64-0.359-18.54c3.42,1.5,4.5,2.04,7.92,3.78h34.858l3.6-3.78
		c2.399,1.681,3.06,2.16,5.22,3.78c0.54,0.42,0.78,0.78,0.78,1.08c0,0.54-0.48,0.96-2.4,2.22v4.08
		c0,23.999,0.061,32.578,0.36,41.818c0,0.6-0.12,0.96-0.36,1.199c-0.479,0.36-2.1,0.66-3.899,0.66c-0.36,0-0.36,0-0.9,0
		c-0.06,0-0.12,0-0.18,0c-1.14,0-1.56-0.359-1.56-1.319v-2.7H109.55V64.312z M109.55,60.533h36.479V16.014H109.55V60.533z
		 M112.669,37.074c5.46,1.5,9.3,2.88,14.52,5.1c2.04-2.88,3.66-5.64,5.22-8.88c2.7-5.52,4.26-10.079,4.74-13.919
		c7.68,2.88,8.399,3.18,8.399,3.84c0,0.6-0.66,0.84-2.46,1.02c-3.24,8.52-6.6,14.579-11.22,20.039c7.86,3.96,9.899,5.94,9.899,9.54
		c0,2.52-0.779,4.319-1.92,4.319c-0.659,0-0.779-0.06-2.64-2.22c-2.279-2.64-5.04-5.16-8.699-8.04c-5.04,4.92-9.6,7.74-17.46,10.74
		l-0.3-0.66c5.94-4.02,9.96-7.62,14.16-12.72c-3.48-2.46-6.36-4.14-12.479-7.619L112.669,37.074z M113.089,21.474
		c6.36,4.08,8.76,6.659,8.76,9.18c0,2.22-1.979,4.979-3.6,4.979c-0.9,0-1.32-0.6-1.68-2.46c-0.84-4.8-1.8-7.499-3.96-11.339
		L113.089,21.474z M122.389,18.955c6.479,3.72,9,6.239,9,8.939c0,2.22-1.92,4.8-3.6,4.8c-0.9,0-1.261-0.54-1.681-2.7
		c-0.84-4.2-1.859-6.779-4.199-10.68L122.389,18.955z"/>
</g>
<g enable-background="new    ">
	<path fill="#B84B40" d="M14.99,121.053c1.26,0.24,2.22,0.361,3.06,0.361h3.66c1.38-1.68,1.86-2.16,3.36-3.781
		c2.1,1.5,2.76,1.92,4.8,3.48c0.54,0.48,0.78,0.779,0.78,1.08c0,0.42-0.18,0.6-2.34,2.039v14.58c1.62,2.52,2.88,3.541,5.459,4.32
		c1.98,0.6,6.18,0.959,11.16,0.959c7.92,0,15.479-0.359,27.059-1.379l0.06,0.6c-1.92,0.9-2.94,1.98-3.6,3.779
		c-0.18,0.66-0.24,0.9-0.36,1.92c-0.06,0.541-0.24,0.66-1.2,0.66c-0.12,0-0.36,0-0.72,0.061c-3.84,0.119-9.78,0.18-13.8,0.18
		c-11.699,0-15.959-0.66-19.379-3c-2.64-1.799-4.08-3.719-6-7.979c-2.64,4.199-3.6,5.578-6.899,9.299
		c0.12,0.959,0.18,1.379,0.18,1.68c0,0.66-0.3,1.02-0.78,1.02c-0.78,0-1.26-0.779-4.86-8.158c2.4-0.721,4.08-1.441,7.5-3.48v-16.619
		h-4.2c-0.78,0-1.8,0.119-2.58,0.24L14.99,121.053z M17.15,97.535c8.82,4.26,11.339,6.238,11.339,9.059c0,2.881-2.16,5.82-4.26,5.82
		c-1.14,0-1.56-0.6-2.46-3.84c-1.32-4.74-2.76-7.619-5.16-10.561L17.15,97.535z M56.028,124.773v-0.9c0-1.5-0.12-2.76-0.36-5.699
		c2.04,0.18,2.58,0.24,4.02,0.42c0.24-0.42,1.02-2.1,2.4-5.16h-7.5c-1.08,0-1.62,0.061-2.58,0.24l-0.48-1.859
		c1.14,0.24,2.22,0.359,3.12,0.359h7.439c1.2-1.199,1.56-1.619,2.94-2.881c2.22,1.682,2.94,2.221,5.16,4.08
		c0.36,0.361,0.54,0.541,0.54,0.781c0,0.539-0.18,0.6-2.76,0.84c-1.56,1.199-4.62,3.24-5.94,3.898c1.38,0.24,1.86,0.422,1.86,0.842
		s-0.12,0.539-2.04,1.379v3.66h1.92c1.44-1.92,1.92-2.52,3.42-4.32c2.28,1.98,2.94,2.641,4.979,4.621c0.18,0.18,0.3,0.359,0.3,0.479
		c0,0.361-0.3,0.48-0.9,0.48h-9.719v6.6c0,1.98,0,1.98,0,2.82c0,0.66,0,0.66,0.06,1.199c-0.12,2.461-0.78,3.66-2.64,4.439
		c-1.2,0.48-3.6,1.021-4.8,1.021c-0.42,0-0.42-0.121-0.54-0.961c-0.24-2.76-1.32-3.9-4.8-4.859l0.06-0.6
		c1.98,0.24,2.64,0.24,5.94,0.359c0.66,0,0.9-0.24,0.9-1.141v-8.879h-7.44c-0.12,0.721-0.12,0.721-0.48,5.039
		c-0.48,4.5-1.38,7.5-2.7,8.82c-0.96,0.961-2.34,1.5-4.38,1.74c-1.02,0.119-1.14,0.119-1.32,0.119c-0.48,0-0.54-0.119-0.54-0.898
		c-0.06-2.58-1.26-4.021-4.14-4.92l0.06-0.66c1.86,0.18,3.9,0.299,4.62,0.299c1.14,0,1.74-0.42,2.04-1.5
		c0.84-2.939,1.26-7.26,1.86-18.299h-3.54c-0.66,6.301-1.14,9.18-2.22,12.18c-1.5,4.379-4.02,8.039-7.92,11.58l-0.48-0.42
		c2.82-5.52,4.08-10.92,4.68-19.561c0.24-3.299,0.3-4.5,0.36-12.359h-2.58c-1.02,0-1.56,0.061-2.7,0.301l-0.36-1.98
		c1.2,0.301,2.1,0.42,3.06,0.42h4.08v-4.02c0-1.68-0.12-2.939-0.42-5.639c6.6,0.479,8.759,0.959,8.759,1.859
		c0,0.48-0.36,0.719-2.28,1.379v6.42h1.38c1.32-1.5,1.68-1.979,2.88-3.539c1.98,1.561,2.58,2.1,4.5,3.9l0.18,0.299
		c1.44-4.02,2.16-7.26,2.46-10.559c7.08,1.619,8.82,2.16,8.82,2.939c0,0.539-0.42,0.719-2.52,1.199c-2.28,3.66-2.34,3.721-3.54,5.4
		h5.88c1.62-1.859,2.16-2.461,3.9-4.32c2.52,1.859,3.24,2.461,5.58,4.5c0.24,0.24,0.36,0.48,0.36,0.6c0,0.24-0.3,0.48-0.6,0.48
		h-16.02c-1.98,2.52-3.3,3.959-6.479,6.84c0.6,0.48,0.78,0.6,1.56,1.199c0.42,0.361,0.6,0.541,0.6,0.781
		c0,0.359-0.48,0.779-1.8,1.559c-0.24,4.201-0.3,4.861-0.48,7.561H56.028z M40.489,107.193c-0.12,4.801-0.12,4.801-0.3,7.32h3.12
		c1.14-1.26,1.14-1.26,2.64-2.879c1.08,0.779,1.32,0.959,2.16,1.498c1.44-2.818,1.86-3.779,2.7-5.998l-0.6,0.059H40.489z"/>
</g>
<g enable-background="new    ">
	<path fill="#FFFFFF" d="M101.63,103.234c1.68,2.1,2.939,2.76,5.34,2.76c3.54,0,7.8-1.381,10.439-3.42
		c1.021-0.721,1.38-0.9,1.86-0.9c2.04,0,5.1,2.641,5.1,4.381c0,0.959-0.36,1.318-2.34,2.219c-1.98,0.961-4.98,3.24-6.96,5.34
		c-4.92,5.16-7.62,11.221-7.62,16.98c0,7.619,4.44,12.238,11.76,12.238c5.58,0,10.2-2.699,12.96-7.439
		c1.979-3.539,3.119-8.82,3.119-14.879c0-4.859-0.72-9.959-2.039-14.34c-0.9-2.879-0.9-2.879-0.9-3.539c0-1.08,0.9-1.98,1.92-1.98
		c1.14,0,2.7,0.721,3.78,1.859c1.199,1.141,1.26,1.26,1.619,3.721c0.54,3.9,2.4,8.699,5.22,13.619c1.44,2.52,2.101,3.301,4.38,5.221
		c1.261,1.139,1.86,2.939,1.86,5.52c0,2.699-0.9,4.318-2.4,4.318c-1.619,0-3.239-1.799-5.64-6.238
		c-2.46-4.561-4.319-9.301-6.899-17.52l-0.18,0.059c1.62,9,1.859,11.16,1.859,15.781c0,7.68-1.8,13.379-5.399,17.158
		c-3.06,3.18-7.56,5.039-12.359,5.039c-9.54,0-15.6-6.959-15.6-17.879c0-7.559,2.4-14.1,7.92-21.658
		c-1.561,0.24-2.34,0.299-3.24,0.299c-4.08,0-6.359-1.799-8.159-6.299L101.63,103.234z M139.068,98.375
		c2.82,0.779,5.34,1.979,7.14,3.42c1.68,1.318,2.16,2.1,2.16,3.719c0,1.5-1.08,2.939-2.16,2.939c-0.66,0-1.08-0.42-1.56-1.5
		c-1.681-3.779-3.3-5.939-5.94-8.1L139.068,98.375z M144.588,95.135c2.22,0.359,3.9,0.959,5.82,1.92
		c2.64,1.32,3.659,2.58,3.659,4.439c0,1.68-0.899,3.061-1.979,3.061c-0.54,0-0.9-0.361-1.38-1.381c-1.62-3.42-3.42-5.52-6.479-7.559
		L144.588,95.135z"/>
</g>
</svg>
