<svg 
 xmlns="http://www.w3.org/2000/svg"
 xmlns:xlink="http://www.w3.org/1999/xlink"
 width="140px" height="140px">
<path fill-rule="evenodd"  fill="rgb(107, 158, 99)"
 d="M-0.000,-0.000 L140.000,-0.000 L140.000,140.000 L-0.000,140.000 L-0.000,-0.000 Z"/>
<path fill-rule="evenodd"  fill="rgb(184, 75, 64)"
 d="M70.000,-0.000 L140.000,-0.000 L140.000,70.000 L70.000,70.000 L70.000,-0.000 Z"/>
<path fill-rule="evenodd"  fill="rgb(236, 215, 89)"
 d="M-0.000,70.000 L70.000,70.000 L70.000,140.000 L-0.000,140.000 L-0.000,70.000 Z"/>
<path fill-rule="evenodd"  fill="rgb(89, 127, 192)"
 d="M70.000,70.000 L140.000,70.000 L140.000,140.000 L70.000,140.000 L70.000,70.000 Z"/>
<path fill-rule="evenodd"  fill="rgb(255, 255, 255)"
 d="M123.253,54.300 C118.452,51.000 115.302,45.900 113.402,38.949 L113.402,55.550 C113.402,56.000 110.852,57.100 108.802,57.100 L107.752,57.100 L107.752,45.250 C104.152,49.150 99.301,52.250 93.401,54.550 L92.951,53.850 C98.951,50.100 103.251,44.399 105.652,38.349 L96.001,38.349 L95.601,36.949 L107.752,36.949 L107.752,29.649 L114.902,30.299 C114.802,30.899 114.502,31.299 113.402,31.449 L113.402,36.949 L118.952,36.949 L121.953,32.949 C121.953,32.949 125.303,35.649 127.353,37.549 C127.203,38.099 126.703,38.349 126.003,38.349 L114.252,38.349 C117.202,43.149 122.603,46.700 127.803,48.400 L127.703,48.950 C125.553,49.500 123.953,51.350 123.253,54.300 ZM119.953,21.348 L119.452,21.048 C119.753,19.498 120.203,17.048 120.553,15.198 L117.652,15.198 L117.652,15.298 L117.652,23.898 C117.652,24.498 117.752,24.648 118.652,24.648 L120.803,24.648 L122.653,24.648 C123.053,24.598 123.353,24.548 123.603,24.248 C123.953,23.798 124.553,22.398 125.153,20.798 L125.653,20.798 L125.853,24.298 C127.053,24.798 127.403,25.448 127.403,26.398 C127.403,28.349 125.753,29.249 120.253,29.249 L117.152,29.249 C113.402,29.249 112.802,28.249 112.802,25.148 L112.802,15.198 L110.352,15.198 C109.802,22.098 108.002,27.398 96.101,30.899 L95.601,30.199 C104.002,26.098 104.802,21.148 104.952,15.198 L102.851,15.198 C102.851,17.798 101.801,19.648 100.401,20.448 C98.951,21.248 96.901,20.848 96.351,19.198 C95.901,17.598 96.901,16.398 98.201,15.748 C99.701,15.048 101.351,13.048 101.251,10.997 L102.001,10.997 C102.351,11.998 102.601,12.898 102.701,13.748 L120.203,13.748 L122.903,10.947 L127.803,15.598 C127.403,16.048 126.853,16.148 125.853,16.198 C124.353,17.698 121.803,20.048 119.953,21.348 ZM97.451,23.648 L91.801,23.648 L91.801,33.049 C94.101,32.599 96.501,32.099 98.901,31.549 L99.051,32.049 C97.251,33.199 94.851,34.699 91.801,36.449 L91.801,50.500 C91.801,54.450 91.051,56.650 85.050,57.200 C84.950,55.450 84.750,54.100 84.150,53.200 C83.550,52.350 82.650,51.750 80.650,51.400 L80.650,50.700 C80.650,50.700 84.500,50.950 85.300,50.950 C86.050,50.950 86.250,50.750 86.250,50.150 L86.250,39.549 C85.350,40.049 84.400,40.549 83.400,41.049 C83.150,41.649 82.650,42.199 82.050,42.349 L79.800,35.349 C81.150,35.149 83.450,34.699 86.250,34.199 L86.250,23.648 L80.600,23.648 L80.200,22.248 L86.250,22.248 L86.250,10.197 L93.651,10.947 C93.551,11.647 93.051,12.148 91.801,12.348 L91.801,22.248 L92.001,22.248 L94.451,18.198 C94.451,18.198 97.301,21.048 98.751,22.848 C98.601,23.398 98.101,23.648 97.451,23.648 ZM80.650,93.898 L80.250,92.498 L88.051,92.498 L88.051,82.547 L95.551,83.197 C95.501,83.798 95.101,84.248 93.951,84.448 L93.951,92.498 L95.351,92.498 L98.401,88.148 C98.401,88.148 101.301,90.648 103.352,92.598 C104.702,89.498 105.852,85.998 106.602,82.447 L114.402,85.048 C114.202,85.648 113.552,86.098 112.402,86.048 C111.552,87.898 110.602,89.548 109.552,91.098 L118.952,91.098 L122.003,86.948 C122.003,86.948 125.453,89.798 127.503,91.748 C127.353,92.298 126.803,92.548 126.103,92.548 L108.552,92.548 C106.102,95.798 103.201,98.348 100.051,100.249 L102.151,102.049 C101.801,102.449 101.201,102.799 100.101,102.899 L100.001,106.249 C105.952,102.899 112.202,97.298 115.152,92.898 L121.503,96.748 C121.253,97.148 120.703,97.298 119.803,97.048 C118.252,98.498 116.202,99.998 113.852,101.399 C114.402,104.299 115.202,107.049 116.252,109.549 C118.602,106.599 121.203,102.749 122.353,100.549 L128.353,104.899 C128.003,105.299 127.253,105.649 126.253,105.249 C124.253,106.649 120.403,108.999 116.752,110.699 C119.302,116.299 123.053,120.600 127.803,122.750 L127.703,123.250 C125.603,123.900 123.803,125.900 123.003,129.050 C116.602,123.500 114.252,115.149 113.102,101.849 C112.302,102.299 111.452,102.749 110.602,103.199 L110.602,127.750 C110.602,128.100 108.902,129.150 106.102,129.150 L105.152,129.150 L105.152,105.599 C103.452,106.249 101.701,106.799 100.001,107.249 C99.551,119.550 98.651,124.450 96.501,126.500 C94.951,127.950 92.951,128.600 90.501,128.600 C90.501,126.900 90.351,125.650 89.751,124.850 C89.101,124.050 87.801,123.500 86.100,123.100 L86.150,122.400 C87.601,122.550 90.001,122.650 90.951,122.650 C91.701,122.650 92.151,122.550 92.501,122.150 C93.901,120.850 94.501,114.799 94.851,102.049 L91.301,102.049 C90.651,112.299 88.601,121.800 80.250,129.050 L79.600,128.350 C86.050,118.150 85.800,105.949 85.850,93.898 L80.650,93.898 ZM94.351,100.649 L97.151,97.748 L99.401,99.698 C100.601,98.048 101.751,96.098 102.751,93.898 L102.501,93.898 L91.551,93.898 C91.501,96.148 91.451,98.448 91.351,100.649 L94.351,100.649 ZM56.003,55.500 L16.700,55.500 L16.300,54.050 L24.001,54.050 L24.001,41.399 L31.101,41.999 C31.051,42.699 30.651,43.099 29.501,43.299 L29.501,54.050 L34.902,54.050 L34.902,38.299 L42.152,38.949 C42.052,39.599 41.702,40.049 40.502,40.249 L40.502,44.900 L46.202,44.900 L49.202,41.099 C49.202,41.099 52.553,43.699 54.653,45.500 C54.503,46.050 53.953,46.300 53.253,46.300 L40.502,46.300 L40.502,54.050 L48.302,54.050 L51.503,50.000 C51.503,50.000 55.153,52.750 57.403,54.700 C57.253,55.250 56.703,55.500 56.003,55.500 ZM57.353,31.849 L57.303,32.399 C55.403,32.899 54.103,34.499 53.503,37.149 C50.653,34.449 48.752,30.499 47.602,25.248 L47.602,37.199 C47.602,37.549 45.452,38.499 43.602,38.499 L42.702,38.499 L42.702,30.399 C40.752,32.949 38.202,35.099 35.152,36.899 L34.652,36.199 C37.702,33.049 39.652,28.899 40.752,24.448 L37.002,24.448 L36.952,24.298 C36.752,24.398 36.502,24.448 36.252,24.448 L31.051,24.448 L31.051,25.498 C41.002,27.298 36.852,34.549 33.051,31.599 C32.901,29.999 32.001,28.199 31.051,26.798 L31.051,37.099 C31.051,37.499 28.951,38.399 27.201,38.399 L26.301,38.399 L26.301,31.499 C24.501,33.849 22.301,35.949 19.751,37.749 L19.201,37.049 C22.001,33.599 23.851,29.049 25.001,24.448 L20.151,24.448 L19.751,22.998 L26.301,22.998 L26.301,16.648 L32.751,17.298 C32.651,17.948 32.251,18.398 31.051,18.598 L31.051,22.998 L31.201,22.998 L33.402,20.098 C33.402,20.098 35.352,21.598 36.852,22.998 L42.702,22.998 L42.702,16.748 L49.302,17.398 C49.202,18.048 48.802,18.498 47.602,18.698 L47.602,22.998 L49.252,22.998 L51.803,19.548 C51.803,19.548 54.703,21.898 56.453,23.648 C56.303,24.198 55.803,24.448 55.103,24.448 L48.552,24.448 C50.503,27.898 53.903,30.549 57.353,31.849 ZM55.053,15.648 L19.551,15.648 L19.551,26.398 C19.551,35.499 19.201,48.450 10.800,57.150 L10.200,56.800 C13.900,47.600 14.050,36.099 14.050,26.398 L14.050,11.497 L20.401,14.198 L47.252,14.198 L50.553,10.047 C50.553,10.047 54.203,12.898 56.453,14.848 C56.303,15.398 55.803,15.648 55.053,15.648 ZM16.800,93.498 C16.300,90.148 14.200,86.498 12.050,84.098 L12.450,83.798 C27.251,86.498 22.301,97.498 16.800,93.498 ZM46.652,85.148 C46.452,85.798 45.852,86.198 44.752,86.098 C43.102,88.648 38.302,96.348 35.002,100.849 C52.203,111.499 46.452,124.000 41.302,119.850 C40.952,114.799 38.002,105.949 33.602,101.049 C35.602,95.448 38.202,86.598 38.852,82.997 L46.652,85.148 ZM31.551,119.850 C31.401,114.899 28.901,106.049 24.951,101.049 C26.801,95.398 28.901,86.548 29.401,82.997 L37.402,85.048 C37.202,85.748 36.602,86.098 35.452,85.998 C33.902,88.598 29.401,96.348 26.351,100.899 C42.552,111.699 36.602,124.100 31.551,119.850 ZM51.303,119.850 C50.753,114.699 47.352,105.799 42.652,101.099 C44.802,95.498 47.702,86.648 48.452,82.997 L56.353,85.298 C56.153,85.948 55.553,86.298 54.453,86.198 C52.703,88.748 47.552,96.398 44.102,100.849 C62.303,111.149 56.653,123.950 51.303,119.850 ZM10.550,105.549 L10.250,104.149 L15.500,104.149 L18.301,100.349 L24.301,105.249 C23.901,105.699 23.151,106.049 21.701,106.249 L21.701,118.750 C25.201,122.350 28.701,122.850 37.852,122.850 C43.502,122.850 51.153,122.850 57.353,122.650 L57.353,123.250 C55.153,123.800 53.853,125.500 53.603,128.100 L37.902,128.100 C28.351,128.100 24.501,126.650 21.151,119.550 C19.151,122.350 16.100,125.900 14.200,127.950 C14.250,128.650 13.950,129.000 13.450,129.200 L10.300,122.850 C11.850,122.300 14.000,121.400 16.250,120.400 L16.250,105.549 L10.550,105.549 Z"/>
</svg>